# xmcd CD database file
#
# Track frame offsets:
#	150
#	22801
#	43632
#	70192
#	88240
#	111356
#	127662
#	145936
#	165125
#	185947
#
# Disc length: 2673 seconds
#
# Revision: 0
# Processed by: cddbd v1.5.2PL0 Copyright (c) Steve Scherf et al.
# Submitted via: jetAudio 7
#
DISCID=800a6f0a
DTITLE=薩頂頂 - 萬物生 alive
DYEAR=2007
DGENRE=New Age
TTITLE0=媽媽天那 (藏文) (Mama Tian Na (Tibetan))
TTITLE1=萬物生 (梵文) (Alive (Mantra))
TTITLE2=神香 (藏文)(電影<喜馬拉雅王子>主題歌) (
TTITLE2=Holy incense (Tibetan))
TTITLE3=錫林河邊的老人 (自語) (Oldster by Xilin River (Se
TTITLE3=lf-created la
TTITLE4=陀羅尼 (梵文) (Tuo luo ni (Sanskrit))
TTITLE5=拉古拉古 (自語) (Lagu lagu (Self-created language))
TTITLE6=飛鳥和花 (Flickering with blossoms (Chinese version))
TTITLE7=神香 (Holy incense (Chinese version))
TTITLE8=萬物生 (Alive (Chinese version))
TTITLE9=琴傷 (Qin shang (Chinese version))
EXTD=YEAR: 2007
EXTT0=
EXTT1=
EXTT2=
EXTT3=
EXTT4=
EXTT5=
EXTT6=
EXTT7=
EXTT8=
EXTT9=
PLAYORDER=
